<svg t="1605093177721" class="icon" viewBox="0 0 1024 1024" version="1.1" xmlns="http://www.w3.org/2000/svg" p-id="1053" width="200" height="200"><path d="M847.7184 534.1184H173.824c-45.2608 0-81.92-36.6592-81.92-81.92V351.7952c0-45.2608 36.6592-81.92 81.92-81.92h673.8944c45.2608 0 81.92 36.6592 81.92 81.92v100.4032c0 45.2608-36.7104 81.92-81.92 81.92z" fill="#FACC31" p-id="1054"></path><path d="M847.7184 244.2752h-73.472c22.6304-19.7632 43.4688-45.0048 47.2064-72.96 2.2528-16.6912-0.4608-41.472-26.0608-64.9728-27.9552-25.6-71.5776-35.3792-116.736-26.0608-38.4 7.8848-107.008 35.9936-162.4576 133.6832C460.7488 116.224 392.1408 88.1152 353.6896 80.2304c-45.1584-9.2672-88.7808 0.4608-116.736 26.0608-25.6 23.5008-28.3136 48.2816-26.0608 64.9728 3.7888 27.9552 24.576 53.1968 47.2064 72.96H173.824c-59.2896 0-107.52 48.2304-107.52 107.52v100.4032c0 46.0288 29.1328 85.248 69.8368 100.5568v275.0464c0 65.28 52.8384 118.3744 117.76 118.3744h525.5168c64.9216 0 117.76-53.0944 117.76-118.3744v-280.2688c34.4576-17.92 58.0608-53.9136 58.0608-95.3856V351.7952c0-59.2896-48.2304-107.52-107.52-107.52z m-158.7712-113.8688c34.2528-7.0656 59.5968 2.4576 71.8336 13.6704 11.264 10.3424 10.3424 17.3568 9.9328 20.3776-3.3792 25.3952-50.5344 60.3136-82.8928 77.0048-1.5872 0.8192-3.0208 1.7408-4.352 2.816h-125.5936c46.0288-84.4288 100.8128-107.6736 131.072-113.8688zM344.5248 241.408C313.088 225.28 265.0624 189.696 261.632 164.4544c-0.4096-3.0208-1.3312-10.0352 9.9328-20.3776 12.2368-11.2128 37.5296-20.736 71.8336-13.6704 30.2592 6.1952 85.0432 29.44 131.1232 113.8688H348.8768c-1.3312-1.0752-2.7648-2.048-4.352-2.8672zM117.504 452.1984V351.7952c0-31.0784 25.2416-56.32 56.32-56.32h317.2352v213.0432H173.824c-31.0784 0-56.32-25.2928-56.32-56.32z m69.8368 375.6032v-268.1344h303.7184v335.3088H253.9008c-36.7104 0.0512-66.56-30.1056-66.56-67.1744z m592.0768 67.2256h-237.1584v-335.3088h303.7184v268.1344c0 37.0176-29.8496 67.1744-66.56 67.1744z m124.6208-442.8288c0 31.0784-25.2416 56.32-56.32 56.32h-305.4592V295.4752h305.4592c31.0784 0 56.32 25.2416 56.32 56.32v100.4032z" fill="#191919" p-id="1055"></path></svg>