<?xml version="1.0" standalone="no"?><!DOCTYPE svg PUBLIC "-//W3C//DTD SVG 1.1//EN" "http://www.w3.org/Graphics/SVG/1.1/DTD/svg11.dtd"><svg t="1605091451427" class="icon" viewBox="0 0 1024 1024" version="1.1" xmlns="http://www.w3.org/2000/svg" p-id="2312" xmlns:xlink="http://www.w3.org/1999/xlink" width="200" height="200"><defs><style type="text/css"></style></defs><path d="M543.3856 673.0752h336.6912V369.3568h-336.6912c-83.8656 0-151.8592 67.9936-151.8592 151.8592 0.0512 83.8656 68.0448 151.8592 151.8592 151.8592z" fill="#FACC31" p-id="2313"></path><path d="M740.9152 942.08H286.464c-90.8288 0-164.7616-73.9328-164.7616-164.7616V251.8016C121.7024 160.9728 195.6352 87.04 286.464 87.04h454.4512c90.8288 0 164.7616 73.9328 164.7616 164.7616 0 14.1312-11.4688 25.6-25.6 25.6s-25.6-11.4688-25.6-25.6c0-62.6176-50.944-113.5616-113.5616-113.5616H286.464c-62.6176 0-113.5616 50.944-113.5616 113.5616v525.5168c0 62.6176 50.944 113.5616 113.5616 113.5616h454.4512c62.6176 0 113.5616-50.944 113.5616-113.5616 0-14.1312 11.4688-25.6 25.6-25.6s25.6 11.4688 25.6 25.6c0 90.8288-73.8816 164.7616-164.7616 164.7616z" fill="#191919" p-id="2314"></path><path d="M880.0768 691.1488h-344.1664c-93.696 0-169.9328-76.2368-169.9328-169.9328 0-93.696 76.2368-169.9328 169.9328-169.9328h344.1664c14.1312 0 25.6 11.4688 25.6 25.6v288.6656c0 14.1312-11.4688 25.6-25.6 25.6z m-344.1664-288.6656c-65.4848 0-118.7328 53.248-118.7328 118.7328 0 65.4848 53.248 118.7328 118.7328 118.7328h318.5664V402.4832h-318.5664z" fill="#191919" p-id="2315"></path><path d="M542.0032 521.472m-35.2256 0a35.2256 35.2256 0 1 0 70.4512 0 35.2256 35.2256 0 1 0-70.4512 0Z" fill="#191919" p-id="2316"></path></svg>