<svg t="1605093143145" class="icon" viewBox="0 0 1024 1024" version="1.1" xmlns="http://www.w3.org/2000/svg" p-id="922" width="200" height="200"><path d="M821.1456 175.1552H204.7488c-61.3888 0-111.2064 49.7664-111.2064 111.2064v111.7696h838.7584V286.3616c0-61.44-49.7664-111.2064-111.1552-111.2064z" fill="#FACC31" p-id="923"></path><path d="M607.4368 204.0832H419.7888c-14.1312 0-25.6-11.4688-25.6-25.6s11.4688-25.6 25.6-25.6h187.648c14.1312 0 25.6 11.4688 25.6 25.6s-11.4688 25.6-25.6 25.6zM309.8624 280.1152c-14.1312 0-25.6-11.4688-25.6-25.6V118.272c0-14.1312 11.4688-25.6 25.6-25.6s25.6 11.4688 25.6 25.6v136.192c0 14.1824-11.4688 25.6512-25.6 25.6512zM715.8272 280.1152c-14.1312 0-25.6-11.4688-25.6-25.6V118.272c0-14.1312 11.4688-25.6 25.6-25.6s25.6 11.4688 25.6 25.6v136.192c0 14.1824-11.4176 25.6512-25.6 25.6512zM445.3888 761.4464c-1.6896 0-3.3792-0.1024-5.0688-0.256a46.87872 46.87872 0 0 1-32.256-17.8176l-68.1472-86.6304a25.58464 25.58464 0 0 1 4.3008-35.9424 25.58464 25.58464 0 0 1 35.9424 4.3008l65.7408 83.5584 203.5712-169.4208a25.57952 25.57952 0 0 1 36.0448 3.2768 25.58464 25.58464 0 0 1-3.2768 36.0448L475.648 750.4896a47.08864 47.08864 0 0 1-30.2592 10.9568z" fill="#191919" p-id="924"></path><path d="M812.544 152.8832c-14.1312 0-25.6 11.4688-25.6 25.6s11.4688 25.6 25.6 25.6c51.9168 0 94.1568 46.7968 94.1568 104.3456v64.0512H119.1936V308.4288c0-57.5488 42.24-104.3456 94.1568-104.3456 14.1312 0 25.6-11.4688 25.6-25.6s-11.4688-25.6-25.6-25.6c-80.1792 0-145.3568 69.7856-145.3568 155.5456v472.9856c0 85.76 65.2288 155.5456 145.3568 155.5456H812.544c80.1792 0 145.3568-69.7856 145.3568-155.5456V308.4288c0-85.76-65.1776-155.5456-145.3568-155.5456z m0 732.8768H213.3504c-51.9168 0-94.1568-46.7968-94.1568-104.3456V423.68H906.752v357.7344c-0.0512 57.5488-42.2912 104.3456-94.208 104.3456z" fill="#191919" p-id="925"></path></svg>